PathFileType	4	(X/Y/Z)	OpenSim_Sub05_CSBaseline_Accel.trc
DataRate	CameraRate	NumFrames	NumMarkers	Units	OrigDataRate	OrigDataStartFrame	OrigNumFrames
100	100	17	8	m	100	6599	10557
Frame#	Time	torso_imu_offset_imu	pelvis_imu_offset_imu	tibia_r_imu_offset_imu	femur_r_imu_offset_imu	tibia_l_imu_offset_imu	femur_l_imu_offset_imu	toes_r_imu_offset_imu	toes_l_imu_offset_imu
				X1	Y1	Z1	X2	Y2	Z2	X3	Y3	Z3	X4	Y4	Z4	X5	Y5	Z5	X6	Y6	Z6	X7	Y7	Z7	X8		Y8	Z8	

6599	65.98000000	8.50191016	2.27469434	6.06878743	8.87162711	-2.40631160	2.45463409	3.40173624	6.28408417	1.80166348	7.55958757	-1.61351242	4.66234512	9.94419369	-0.40191652	0.09975006	9.69728453	0.90390190	-0.03703349	3.38414948	-1.78702532	8.95418083	4.78866474	1.72990538	11.02113344
6600	65.99000000	8.46158893	2.38856025	6.12676578	9.06745320	-2.34332781	2.47934965	3.14817800	5.94998646	1.96438333	7.30977204	-1.40943803	4.68182210	9.89957946	-1.02007972	-0.00370545	9.83342529	0.75889076	0.05819001	4.90663921	-1.49709966	9.32595130	4.67617102	1.84028318	11.30009606
6601	66	8.32611790	2.36314548	6.19219812	9.14068862	-2.28120738	2.46451574	3.07939694	5.37995266	2.23261129	7.04709397	-0.75664513	4.62827880	9.81658290	-1.31154009	-0.28317422	9.74088433	0.81760108	0.15949052	6.06902631	-1.17742173	9.64006918	4.75859340	1.89581619	11.19063464
6602	66.01000000	8.19112618	2.32244885	6.16888822	9.12937988	-2.27267917	2.40943855	3.73487604	4.86369525	1.85160012	6.75377961	-0.07807347	4.46014127	9.70696848	-1.33159264	-0.56248698	9.59602848	1.14819976	0.00567826	6.80688045	-1.17775587	9.85595951	4.94364699	1.96016493	11.00343444
6603	66.02000000	8.07227178	2.27542961	6.19850083	8.99893360	-2.17881986	2.35499661	4.98213497	4.78345640	1.44250121	6.50531257	0.53947386	4.27914165	9.60592523	-1.32794491	-0.51478539	9.45298208	1.12901073	0.03002401	7.66492828	-1.35436062	10.01282204	5.08560949	1.98113377	10.95074158
6604	66.03000000	8.06349150	2.34075761	6.28298237	8.86350734	-2.24716390	2.32803069	6.32077639	4.76675341	1.66180885	6.22728948	0.83988154	4.15421237	9.62371486	-1.37137769	-0.56836539	9.19116152	1.20193154	-0.11232204	8.63836921	-2.07313682	10.16907758	5.02823746	1.95348690	10.90456794
6605	66.04000000	8.11143443	2.40895830	6.30039531	8.72346554	-2.29047918	2.37492868	7.40563570	3.99416122	2.06786957	6.02883227	0.88961755	3.97168464	9.66002540	-1.25084331	-0.68582816	9.34650201	1.09403665	-0.18104630	10.08469705	-2.81355342	10.19982461	4.87705771	2.20963251	11.00342306
6606	66.05000000	8.17209268	2.48264745	6.30158181	8.61102631	-2.37065106	2.21857526	8.69402166	3.35257034	2.95931460	5.85856517	0.98469327	3.94484020	9.64016880	-1.18866954	-0.54990153	9.50272184	0.93728688	-0.13208987	11.46185985	-3.11519106	9.93335562	4.95745951	2.31316406	10.95911158
6607	66.06000000	8.26095290	2.49785491	6.32619054	8.66596094	-2.46516266	1.98807824	11.05999117	3.90418194	2.89606602	5.83685015	0.70093769	4.01326389	9.71576288	-1.58191020	-0.87914748	9.57255131	1.16694999	-0.21768797	12.39246927	-2.87539181	9.75699615	5.01981458	2.22561806	10.86600509
6608	66.07000000	8.28124964	2.53085889	6.23831493	8.71591750	-2.36779211	1.91219302	13.60458077	4.99426683	1.36797705	5.96652080	-0.27273727	4.15519386	9.86650888	-1.94341382	-0.88179723	9.67142076	1.30382932	0.00025635	14.00022374	-2.42781862	9.70441787	4.75660326	2.17731854	11.03210149
6609	66.08000000	8.17966410	2.51762779	6.06660197	8.72874998	-2.28463241	1.87008726	14.11571729	5.36575267	-0.00293779	6.31976035	-1.56480793	4.29263466	9.60466587	-1.99193032	-0.50450724	9.80008190	1.40274346	0.18284410	17.03309839	-2.63357009	9.48749232	4.58565355	2.28710016	11.06847747
6610	66.09000000	8.02539916	2.49143529	6.00276341	8.60404360	-2.41276314	1.85610878	13.08501998	5.66297450	0.06972558	6.98201030	-2.74225974	4.61858979	9.72426668	-1.25326859	-0.16086767	9.62886113	1.18436817	0.49037037	20.67328602	-3.95241202	8.15547237	4.87771142	2.14887900	10.98483039
6611	66.10000000	8.06311792	2.48988884	6.04244370	8.49793019	-2.69326027	1.98978510	12.12046446	6.38987296	0.68879044	7.99553939	-3.83808178	5.37198805	10.25965819	-0.16533133	-0.27496372	9.32134533	1.10279871	0.64056258	22.54552795	-3.96459261	5.64463552	5.00053756	2.12243009	11.13243384
6612	66.11000000	8.23326359	2.59898816	5.98314306	8.43274710	-2.97938070	2.19805222	11.64846292	6.15671983	1.71772797	9.72037353	-5.13053981	6.38231290	10.33904044	0.32269324	0.00593883	9.39807090	1.16347195	0.44091754	23.41826795	-2.32966329	2.45964739	4.89405261	2.03389896	11.18183326
6613	66.12000000	8.45262633	2.65806519	6.07288103	8.29756934	-3.08177804	2.39526751	11.91431424	4.86262403	1.10668121	11.81883797	-6.52097244	7.82099843	10.27528462	0.21733437	-0.06140554	9.49120383	1.22480866	0.28277136	23.98096836	0.01640998	-0.90041039	4.50670184	2.08337280	11.51554431
6614	66.13000000	8.57943700	2.74349919	5.96187553	8.32320221	-2.91198365	2.63297968	11.78037646	3.65629101	-1.13224540	13.37609222	-7.89343047	8.88714654	10.45533161	0.33884208	-0.23296198	9.60765924	1.48102014	-0.03602102	24.51037377	1.84352221	-4.11846247	4.51107116	2.43545341	11.48177635
6615	66.14000000	8.61265766	2.83223202	6.02644163	8.43717728	-2.44592742	2.80753289	10.86317555	2.73244665	-2.80315434	13.72677544	-9.09898796	7.79382089	10.63545588	0.32135056	-0.54792371	9.63506435	1.79307468	-0.27035860	24.93205496	1.81926620	-6.94374914	4.70209732	2.40893803	11.36534977
